<?xml version="1.0" encoding="UTF-8"?>
<svg xmlns="http://www.w3.org/2000/svg" width="1170" height="2532" viewBox="0 0 1170 2532">
  <title>Tailtopia — Splash (static final frame)</title>

  <!-- embeds Quicksand for the tagline so this file renders correctly standalone
       (browser/Figma-style contexts); falls back to system sans-serif otherwise -->
  <style><![CDATA[
    @import url('https://fonts.googleapis.com/css2?family=Quicksand:wght@600&display=swap');
  ]]></style>

  <!-- background -->
  <rect x="0" y="0" width="1170" height="2532" fill="#7D45F6"/>

  <!-- soft halo behind the mark -->
  <defs>
    <radialGradient id="halo" cx="50%" cy="50%" r="50%">
      <stop offset="0%" stop-color="#FFFFFF" stop-opacity=".20"/>
      <stop offset="68%" stop-color="#FFFFFF" stop-opacity="0"/>
    </radialGradient>
  </defs>
  <circle cx="585" cy="1089" r="420" fill="url(#halo)"/>

  <!-- mark: dog/T (white) + cat negative-space (bg-violet), scaled 3x from the 108px HTML stage, centered at (585,1089) -->
  <g transform="translate(585,1089) scale(.648) translate(-250,-250)">
    <!-- dog/T base, white -->
    <g fill="#FFFFFF">
      <path d="M391.2,405l0.1,1.4h-0.5C391,405.9,391.1,405.5,391.2,405z"/>
      <path d="M403.9,131.3c-0.3,2.8-1.6,5.3-3.5,7.1c-1.9,1.8-4.5,2.9-7.3,3l-2,0c-9.2,0.2-19.2,6.1-18,25.9l11.3,147.9
        c-0.5,0.4-1,0.8-1.4,1.3l-20,20.4c-1.7-0.7-3.5-1-5.3-1c-4.7,0-9.1,2.3-11.8,6.2c-13,19-12.5,53.8-11.9,64.4h-39
        c1.9-4.8,3.3-9.7,4.4-14.8c1.4-6.7,2.1-13.6,2.1-20.5c0-0.9,0-1.7-0.1-2.6l-0.1-2.6c0-1.7-0.3-3.5-0.5-5.2
        c-0.1-0.9-0.2-1.7-0.3-2.6l-0.5-2.6l-0.5-2.6c-0.2-0.9-0.4-1.7-0.6-2.5c-1.6-6.7-3.7-12.8-5.7-18.4c-2-5.6-3.9-10.8-5.2-15.7
        c-0.7-2.5-1.1-4.7-1.5-6.9c-0.3-2.2-0.5-4.4-0.5-6.4c0-4.1,0.7-7.7,1.9-10.2c0.3-0.6,0.6-1.2,1-1.7c0.2-0.3,0.4-0.5,0.5-0.7
        l0.3-0.4c0.1-0.1,0.2-0.1,0.3-0.2c0.6-0.7,1.4-1.3,2.4-1.8c0.4-0.3,1-0.5,1.5-0.7c0.3-0.1,0.6-0.2,0.9-0.3
        c0.3-0.1,0.6-0.1,0.9-0.2c1.2-0.2,2.4-0.4,3.6-0.3c1.2,0.1,2.3,0.3,3.1,0.7c0.9,0.4,1.5,0.8,2,1.3c1.1,0.9,2.4,1.9,3.7,2.6
        c9.9,5.5,22.5,1.9,28-8c5.5-10,1.9-22.5-8.1-28l-2.5-1.4c-4.6-2.5-9.4-4.2-14.3-5.2c-4.8-1-9.7-1-14.3-0.6
        c-4.7,0.4-9.2,1.5-13.5,3.2c-1.1,0.4-2.2,0.8-3.2,1.3c-1,0.5-2.1,1-3.1,1.6c-2,1.2-4.1,2.4-5.9,3.9c-1.9,1.4-3.7,3.1-5.4,4.8
        c-0.8,0.9-1.6,1.8-2.4,2.7c-0.8,0.9-1.5,2-2.2,3c-0.3,0.5-0.7,1-1,1.5l-0.9,1.5c-0.6,1-1.2,2-1.6,3.1c-1,2.1-1.9,4.2-2.6,6.3
        c-1.4,4.3-2.2,8.5-2.5,12.6c-0.4,4.1-0.3,8,0.1,11.8c0.4,3.8,1,7.5,1.9,11c0.9,3.5,1.9,7,3.1,10.1c2.3,6.3,4.8,11.9,7.1,17.2
        c2.3,5.3,4.4,10.1,5.8,14.8c1.4,4.6,2.4,9.2,2.7,14c0.9,11.5-1.4,23.6-6.5,34.2H213l-9.3-46.3c5.7-3,10.7-7.1,14.8-12.2
        c8.6-10.6,11.7-22.8,10.5-36.3c-0.7-7.9-2.9-15.4-6-22.7c-1.1-2.5-1.1-4.8-0.7-7.3c1.7-10.2,3.7-20.3,3.5-30.7
        c0-2.2,0.1-4.5,0-6.7c-0.2-3.2-0.9-6.4-2.1-9.5c-1.6-3.8-3.9-5.5-7.7-5.5c-0.5,0-0.9,0-1.4,0.1c-2.6,0.3-5,1.3-7.3,2.5
        c-7.3,3.9-13.6,9-19.7,14.5c-1.8,1.6-2.5,2.3-3.5,2.3c-0.8,0-1.7-0.4-3.4-1c-8-3.2-16.4-4.7-25-4.7c-0.3,0-0.6,0-0.9,0
        c-8.4,0.1-16.6,1.8-24.4,4.9c0.6-2.8,1.1-5.6,1.7-8.5c0.5-2.7,1.1-5.5,1.7-8.2c11.3-54.6,24.8-108.2,38.7-140.1
        c3.3-7.5,13.5-8.7,18.4-2.1c11.9,15.9,30,43,32.6,63.7l87.5-0.7l17.8-41.7c3.2-7.4,10.8-11.9,18.8-11l35.2,5.8
        C395.6,106.6,405.1,118.2,403.9,131.3z"/>
      <path d="M229.8,357.2c10.7-13.2,15.3-28.9,13.7-46.8c-0.8-8.8-3-17.5-6.8-26.5c0.2-1.1,0.4-2.3,0.6-3.4
        c1.6-9.4,3.3-19.2,3.1-29.6c0-0.6,0-1.1,0-1.7c0-1.8,0.1-3.7-0.1-5.9c-0.4-5.2-1.4-9.8-3.2-14.1c-3.8-9.3-11.6-14.6-21.2-14.6
        c-0.9,0-1.9,0-2.9,0.2c-5.3,0.5-9.6,2.5-12.7,4.1c-7.3,3.8-13.6,8.7-19,13.4c-8.3-2.7-16.9-4.1-25.7-4.1c-0.4,0-0.7,0-1.1,0
        c-7.1,0.1-14.1,1.1-20.8,3c-1.3,0.3-2.5,0.7-3.8,1.1c-2.2-1.9-4.5-3.8-6.9-5.6c-5.4-4-11.3-8.2-18.7-10.6
        c-3.3-1.1-6.2-1.6-9.2-1.6c-4.9,0-16.8,1.7-22,17.2c-3.3,9.8-2.7,19.3-2.3,27c0.5,7.8,1.8,15.2,3.1,22.4
        c0.2,0.9,0.3,1.8,0.5,2.7c-0.5,1.2-1,2.5-1.5,3.9c-4.9,13.2-6.6,25.4-5.2,37.3c1.4,11.3,5.4,21.4,12,30.2c2,2.6,4.1,5,6.5,7.3
        l-11.7,43.8h15.2l13.1-49.2c-4.3-3-8.2-6.5-11.4-10.8c-5.2-6.8-8.1-14.5-9.2-23c-1.3-10.5,0.7-20.6,4.3-30.5
        c0.7-1.8,1.4-3.7,2.2-5.5c0.9-2,0.4-4,0.1-6c-1.4-7.8-2.9-15.6-3.4-23.6c-0.4-7.2-0.8-14.4,1.5-21.4c1.6-4.9,4.2-7.2,8.1-7.2
        c1.3,0,2.9,0.3,4.5,0.8c5.4,1.8,10,5.1,14.5,8.5c3.9,2.9,7.6,6.1,11.2,9.4c0.7,0.6,1.2,0.9,1.9,0.9c0.4,0,0.8-0.1,1.3-0.3
        c0.6-0.3,1.2-0.5,1.7-0.7c7.8-3.2,16-4.8,24.4-4.9c0.3,0,0.6,0,0.9,0c8.6,0,16.9,1.6,25,4.7c1.7,0.7,2.6,1,3.4,1
        c1,0,1.8-0.7,3.5-2.3c6.1-5.5,12.4-10.7,19.7-14.5c2.3-1.2,4.7-2.3,7.3-2.5c0.5-0.1,1-0.1,1.4-0.1c3.7,0,6.1,1.7,7.7,5.5
        c1.3,3,1.9,6.2,2.1,9.5c0.2,2.2,0,4.5,0,6.7c0.2,10.4-1.8,20.5-3.5,30.7c-0.4,2.5-0.4,4.8,0.7,7.3c3.1,7.3,5.3,14.8,6,22.7
        c1.2,13.5-1.9,25.7-10.5,36.3c-4.1,5.1-9.1,9.1-14.8,12.2l9.3,46.3h15l-7.9-39.5C223.6,364.1,226.9,360.8,229.8,357.2z"/>
      <g opacity=".6">
        <path d="M455,359.5c-22.1,9.2-41,24.5-56,46.9h-8.2c0.1-0.5,0.3-0.9,0.4-1.4c6.1-20.8,15.3-38.4,27.9-53l2-1.2
          c0.6-0.3,1.2-0.5,1.7-0.5c1.8,0,3.4,1.4,3.4,3.3l27.9,0.9C456.8,354.6,457.5,358.4,455,359.5z"/>
      </g>
      <path d="M432,324.1c-8.7,6.7-16.6,14.2-23.6,22.7c-2.7,3.3-5.3,6.8-7.7,10.4c-2,3-3.9,6-5.7,9.2
        c-2.1,3.7-4,7.4-5.9,11.4c-4.1,8.8-7.5,18.3-10.3,28.6h-33.4c-0.4-8.3-1.2-41.7,9.9-57.9c0.5-0.8,1.4-1.2,2.3-1.2
        s1.8,0.4,2.4,1.2l1.5,1.9c0.5,0.7,1.3,1.1,2.2,1.1c0.7,0,1.4-0.3,1.9-0.8l19.9-20.4l5.7-5.8c0.8-0.8,1.8-1.2,2.8-1.2
        c1.7,0,3.3,1,3.8,2.9l31.6-7.3c0.2-0.1,0.5-0.1,0.7-0.1C432.9,318.8,434.3,322.4,432,324.1z"/>
    </g>
    <!-- cat negative-space, filled with background violet so it reads as a cutout -->
    <path fill="#7D45F6" d="M211.9,363.7l8.6,42.7H213l-9.3-46.3c5.7-3,10.7-7.1,14.8-12.2c8.6-10.6,11.7-22.8,10.5-36.3
      c-0.7-7.9-2.9-15.4-6-22.7c-1.1-2.5-1.1-4.8-0.7-7.3c1.7-10.2,3.7-20.3,3.5-30.7c0-2.2,0.1-4.5,0-6.7c-0.2-3.2-0.9-6.4-2.1-9.5
      c-1.6-3.8-3.9-5.5-7.7-5.5c-0.5,0-0.9,0-1.4,0.1c-2.6,0.3-5,1.3-7.3,2.5c-7.3,3.9-13.6,9-19.7,14.5c-1.8,1.6-2.5,2.3-3.5,2.3
      c-0.8,0-1.7-0.4-3.4-1c-8-3.2-16.4-4.7-25-4.7c-0.3,0-0.6,0-0.9,0c-8.4,0.1-16.6,1.8-24.4,4.9c-0.6,0.2-1.2,0.5-1.7,0.7
      c-0.5,0.2-0.9,0.3-1.3,0.3c-0.7,0-1.3-0.3-1.9-0.9c-3.6-3.3-7.3-6.5-11.2-9.4c-4.5-3.4-9.1-6.7-14.5-8.5
      c-1.7-0.6-3.2-0.8-4.5-0.8c-3.9,0-6.4,2.3-8.1,7.2c-2.4,7-2,14.2-1.5,21.4c0.5,7.9,2,15.7,3.4,23.6c0.3,2,0.8,4-0.1,6
      c-0.8,1.8-1.5,3.6-2.2,5.5c-3.7,9.8-5.6,19.9-4.3,30.5c1,8.5,4,16.2,9.2,23c3.3,4.3,7.1,7.8,11.4,10.8l-13.1,49.2h-7.6
      l12.4-46.3c-3.4-2.8-6.3-5.9-8.9-9.2c-5.8-7.7-9.4-16.6-10.6-26.6c-1.3-10.7,0.3-21.8,4.8-33.9c0.8-2,1.5-3.9,2.2-5.6
      c0-0.4-0.1-1.1-0.2-1.6l-0.6-3.3c-1.3-7-2.5-14.2-3-21.6c-0.4-7.4-0.9-15.8,1.9-24.2c3.6-10.6,11-12.2,15-12.2
      c2.1,0,4.4,0.4,6.8,1.2c6.4,2.1,11.5,5.7,16.6,9.5c3.5,2.6,6.8,5.5,9.7,8.1c1.2-0.5,2.5-0.9,3.7-1.3c7.3-2.4,14.9-3.7,22.6-3.8
      c0.3,0,0.7,0,1,0c9.4,0,18.6,1.7,27.3,5.1c6.1-5.4,12.8-11,20.8-15.2c2.5-1.3,6-2.9,10-3.3c0.7-0.1,1.5-0.1,2.1-0.1
      c4.7,0,11,1.8,14.5,10.1c1.5,3.6,2.3,7.4,2.6,11.8c0.1,1.9,0.1,3.6,0.1,5.3c0,0.6,0,1.2,0,1.9c0.2,9.8-1.4,19.2-3,28.4
      c-0.2,1.2-0.4,2.4-0.6,3.6c-0.3,1.6-0.1,2.4,0.2,3.2c3.7,8.6,5.9,16.7,6.6,25c1.4,15.9-2.7,29.9-12.1,41.5
      C220.6,356.9,216.5,360.6,211.9,363.7z"/>
  </g>

  <!-- wordmark: "Tailtopia", white, viewBox-cropped from the source lockup (28 183 444 134 — measured via getBBox, includes full tail-curl top and "p" descender bottom), scaled to 516px wide, centered, placed under the mark -->
  <g transform="translate(327,1317) scale(1.1622)">
    <svg width="444" height="134" viewBox="28 183 444 134">
      <g fill="#FFFFFF">
        <path d="M157.8,247.9c-1.1-2.8-2.7-5.2-5-7.1c-2.2-2-5.1-3.5-8.6-4.6c-3.5-1.1-7.7-1.6-12.5-1.6
          c-4.8,0-8.9,0.6-12.3,1.7c-3.4,1.1-6.2,2.5-8.3,4.2c-2.1,1.7-3.7,3.4-4.7,5.2c-1,1.8-1.6,3.3-1.6,4.6c-0.1,0.7,0.1,1.3,0.5,1.7
          c0.4,0.4,1,0.7,1.9,0.7h15.3c1.2,0,2.1-0.4,2.8-1.2c0.8-1.1,1.7-1.9,2.6-2.5c0.9-0.6,2.2-0.9,3.7-0.9c2.2,0,3.6,0.6,4.3,1.7
          c0.7,1.1,1,2.8,1,5.1v0.8l-12.5,2c-7.1,1.2-12.8,3.3-17,6.3c-4.2,3-6.4,7.1-6.4,12.3c0,3.2,0.9,6.1,2.7,8.6
          c1.8,2.6,4.2,4.6,7.4,6.1c3.2,1.5,6.7,2.3,10.7,2.3c2.5,0,4.8-0.3,6.9-1c2.1-0.7,3.9-1.5,5.4-2.6c1.6-1.1,2.8-2.4,3.8-3.8v3.5
          c0,0.8,0.3,1.5,0.9,2c0.6,0.5,1.2,0.8,2,0.8h15.9c0.8,0,1.5-0.3,2-0.8c0.6-0.6,0.8-1.2,0.8-2v-32.2
          C159.4,253.8,158.9,250.7,157.8,247.9z M137.2,268.4c0,2.4-0.4,4.4-1.2,6c-0.8,1.6-1.9,2.8-3.2,3.5c-1.3,0.8-2.9,1.1-4.7,1.1
          c-1.2,0-2.2-0.2-3.1-0.6c-0.9-0.4-1.6-0.9-2.1-1.6c-0.5-0.6-0.8-1.4-0.8-2.3c0-1.2,0.5-2.2,1.6-3.2c1.1-1,3-1.7,5.7-2.2l7.8-1.5
          V268.4z"/>
        <path d="M184.1,236.5c-0.6-0.5-1.3-0.8-2.1-0.8h-16.1c-0.8,0-1.5,0.3-2,0.8c-0.5,0.5-0.8,1.2-0.8,2v50.9
          c0,0.8,0.3,1.5,0.8,2c0.5,0.5,1.2,0.8,2,0.8H182c0.8,0,1.5-0.3,2.1-0.8c0.6-0.6,0.9-1.2,0.9-2v-50.9
          C185,237.7,184.7,237,184.1,236.5z M183.9,212.3c-0.6-0.6-1.3-0.9-2.1-0.9h-15.7c-0.8,0-1.5,0.3-2,0.9c-0.5,0.6-0.8,1.3-0.8,2.1
          v11.4c0,0.8,0.3,1.5,0.8,2c0.5,0.5,1.2,0.8,2,0.8h15.7c0.8,0,1.5-0.3,2.1-0.8c0.6-0.6,0.9-1.2,0.9-2v-11.4
          C184.7,213.6,184.5,212.9,183.9,212.3z"/>
        <path d="M210.1,215.8c-0.6-0.5-1.2-0.8-2-0.8h-16.2c-0.8,0-1.5,0.3-2,0.8c-0.6,0.5-0.8,1.2-0.8,2v71.6
          c0,0.8,0.3,1.5,0.8,2c0.5,0.5,1.2,0.8,2,0.8h16.2c0.7,0,1.4-0.3,2-0.8c0.6-0.6,0.9-1.2,0.9-2v-71.6
          C210.9,217.1,210.7,216.4,210.1,215.8z"/>
        <path d="M260.4,275.5c-0.6-0.5-1.2-0.8-2-0.8h-9.1c-1.9,0-3.3-0.6-4.1-1.8c-0.9-1.2-1.3-2.8-1.3-5v-15.7h13.7
          c0.8,0,1.5-0.3,2-0.8c0.5-0.6,0.8-1.2,0.8-2v-11c0-0.8-0.3-1.5-0.8-2c-0.5-0.5-1.2-0.8-2-0.8h-13.7v-17.8c0-0.8-0.3-1.5-0.8-2
          c-0.5-0.5-1.2-0.8-2-0.8h-15.8c-0.8,0-1.5,0.3-2,0.8c-0.5,0.5-0.8,1.2-0.8,2v17.8h-8.6c-0.8,0-1.5,0.3-2,0.8
          c-0.6,0.5-0.8,1.2-0.8,2v11c0,0.8,0.3,1.5,0.8,2c0.5,0.5,1.2,0.8,2,0.8h8.6v17.5c0,5.4,1,9.8,3.1,13.1c2.1,3.3,5,5.7,8.7,7.1
          c3.7,1.5,8.1,2.2,13,2.2h11.2c0.8,0,1.5-0.3,2-0.8c0.5-0.6,0.8-1.2,0.8-2v-11.9C261.2,276.8,260.9,276.1,260.4,275.5z"/>
        <path d="M321,259c-0.3-5.2-1.7-9.6-4.1-13.3c-2.5-3.6-5.9-6.4-10.3-8.3c-4.4-1.9-9.6-2.8-15.7-2.8
          s-11.3,0.9-15.7,2.8c-4.4,1.9-7.8,4.6-10.3,8.3c-2.5,3.6-3.8,8-4.1,13.3c-0.1,1.5-0.1,3.2-0.1,5c0,1.8,0,3.5,0.1,5
          c0.3,5.1,1.6,9.5,3.9,13.2c2.3,3.7,5.7,6.4,10.1,8.3c4.4,1.9,9.8,2.8,16.1,2.8s11.8-1,16.1-2.8c4.4-1.9,7.7-4.7,10.1-8.3
          c2.3-3.7,3.6-8.1,3.9-13.2c0.1-1.5,0.2-3.2,0.2-5C321.2,262.1,321.1,260.5,321,259z M289.2,255c0-0.1,0-0.1,0-0.2
          c0.2-0.6,0.6-1.2,1-1.7c1.2-1.3,3-1.8,4.9-1.1c1.1,0.4,1.9,1.1,2.4,2c0.6,1,0.7,2.1,0.5,3.3c0,0.2-0.1,0.4-0.2,0.6
          c-0.8,2.3-3.5,3.6-5.8,2.7C289.8,259.8,288.5,257.3,289.2,255z M279.1,255.2c0.7-2.1,3.1-3.2,5.2-2.4c1,0.4,1.8,1.1,2.3,2
          c0.2,0.4,0.3,0.8,0.4,1.2c0.1,0.7,0.1,1.3-0.2,2c-0.8,2-2.4,2.9-4.2,2.7c-0.3,0-0.7-0.1-1-0.2c-0.1,0-0.1,0-0.2-0.1
          C279.3,259.6,278.3,257.4,279.1,255.2z M297,272.9c-1,2.8-4.1,4.7-7.3,4.1c-0.4-0.1-0.8-0.2-1.2-0.3c-0.7-0.2-1.3-0.5-2-0.7
          c-0.9-0.4-1.9-0.6-2.9-1.1c-2.5-1.2-3.9-3.8-3.6-6.6c0.1-1.2,0.6-2.2,1.2-3.1c0.5-0.6,1.1-1.2,1.8-1.7c2.8-2,5.9-2.3,9-0.9
          c3.4,1.5,5.2,4.2,5.3,8c0,0,0,0,0,0.1C297.4,271.4,297.3,272.2,297,272.9z M305.3,264.3l-0.4,1.2c-0.5,0.7-1,1.4-1.8,1.8
          c-0.8,0.3-1.6,0.4-2.3,0.3c-0.4,0-0.8-0.2-1.2-0.4c-0.3-0.1-0.6-0.3-0.8-0.5c-1.3-1.1-1.6-2.4-1.3-4c0.3-1.2,1.1-2.3,2.3-2.8
          c0.6-0.2,1.2-0.4,1.8-0.3c0.4,0,0.8,0.1,1.2,0.2c1.7,0.6,2.7,2.3,2.6,4.1C305.3,264,305.3,264.1,305.3,264.3z"/>
        <path d="M384.2,259.8c-0.2-4.3-0.9-8-2.1-11.2c-1.2-3.2-2.8-5.8-4.8-7.9c-2-2.1-4.4-3.6-7.1-4.6
          c-2.7-1-5.8-1.5-9.2-1.5c-3.9,0-7.2,0.7-9.9,2.1c-2.7,1.4-4.9,3.2-6.6,5.4v-3.6c0-0.8-0.3-1.5-0.8-2c-0.5-0.5-1.2-0.8-2-0.8h-15.3
          c-0.8,0-1.5,0.3-2,0.8c-0.6,0.5-0.8,1.2-0.8,2v71.6c0,0.8,0.3,1.5,0.8,2c0.5,0.5,1.2,0.8,2,0.8h16.7c0.7,0,1.4-0.3,2-0.8
          c0.6-0.6,0.9-1.2,0.9-2v-23.7c1.7,2.4,3.8,4.1,6.3,5.3c2.5,1.1,5.5,1.7,8.8,1.7c3.4,0,6.5-0.5,9.3-1.6c2.8-1.1,5.1-2.7,7.2-4.8
          c2-2.1,3.6-4.8,4.8-7.9c1.2-3.1,1.8-6.7,2-10.8c0.1-1.6,0.1-3,0.1-4.2C384.3,262.7,384.2,261.3,384.2,259.8z M361.2,267.4
          c-0.1,1.7-0.4,3.3-0.9,4.6c-0.5,1.3-1.2,2.4-2.3,3.2c-1,0.8-2.5,1.1-4.4,1.1c-1.8,0-3.3-0.4-4.4-1.1c-1.1-0.7-1.9-1.7-2.4-2.8
          c-0.6-1.1-0.9-2.5-0.9-4c-0.1-1.5-0.1-2.9-0.1-4.1c0-1.2,0-2.6,0.1-4.1c0.1-1.6,0.3-3,0.8-4.4c0.5-1.3,1.3-2.4,2.4-3.1
          c1.1-0.8,2.6-1.2,4.5-1.2s3.4,0.4,4.4,1.1c1.1,0.8,1.8,1.8,2.3,3.1c0.5,1.3,0.8,2.9,0.9,4.6C361.4,262.8,361.4,265.1,361.2,267.4z
          "/>
        <path d="M407.7,236.5c-0.6-0.5-1.3-0.8-2.1-0.8h-16.1c-0.8,0-1.5,0.3-2,0.8c-0.6,0.5-0.8,1.2-0.8,2v50.9
          c0,0.8,0.3,1.5,0.8,2c0.5,0.5,1.2,0.8,2,0.8h16.1c0.8,0,1.5-0.3,2.1-0.8c0.6-0.6,0.9-1.2,0.9-2v-50.9
          C408.5,237.7,408.2,237,407.7,236.5z M407.4,212.3c-0.6-0.6-1.3-0.9-2.1-0.9h-15.7c-0.8,0-1.5,0.3-2,0.9c-0.6,0.6-0.8,1.3-0.8,2.1
          v11.4c0,0.8,0.3,1.5,0.8,2c0.5,0.5,1.2,0.8,2,0.8h15.7c0.8,0,1.5-0.3,2.1-0.8c0.6-0.6,0.9-1.2,0.9-2v-11.4
          C408.3,213.6,408,212.9,407.4,212.3z"/>
        <path d="M466.2,247.9c-1.1-2.8-2.8-5.2-5-7.1c-2.3-2-5.1-3.5-8.6-4.6c-3.5-1.1-7.7-1.6-12.5-1.6
          c-4.8,0-8.9,0.6-12.3,1.7c-3.4,1.1-6.2,2.5-8.3,4.2c-2.1,1.7-3.7,3.4-4.7,5.2c-1,1.8-1.6,3.3-1.6,4.6c-0.1,0.7,0.1,1.3,0.5,1.7
          c0.4,0.4,1.1,0.7,1.8,0.7h15.3c1.1,0,2.1-0.4,2.8-1.2c0.8-1.1,1.7-1.9,2.6-2.5c0.9-0.6,2.2-0.9,3.7-0.9c2.2,0,3.6,0.6,4.3,1.7
          c0.7,1.1,1,2.8,1,5.1v0.8l-12.5,2c-7.1,1.2-12.8,3.3-17,6.3c-4.2,3-6.4,7.1-6.4,12.3c0,3.2,0.9,6.1,2.7,8.6
          c1.8,2.6,4.2,4.6,7.4,6.1c3.1,1.5,6.7,2.3,10.7,2.3c2.5,0,4.8-0.3,6.9-1c2.1-0.7,3.9-1.5,5.4-2.6c1.6-1.1,2.8-2.4,3.7-3.8v3.5
          c0,0.8,0.3,1.5,0.9,2c0.6,0.5,1.2,0.8,2,0.8H465c0.8,0,1.5-0.3,2-0.8c0.5-0.6,0.8-1.2,0.8-2v-32.2
          C467.8,253.8,467.3,250.7,466.2,247.9z M445.6,268.4c0,2.4-0.4,4.4-1.2,6c-0.8,1.6-1.9,2.8-3.2,3.5c-1.3,0.8-2.9,1.1-4.7,1.1
          c-1.2,0-2.2-0.2-3.1-0.6c-0.9-0.4-1.6-0.9-2.1-1.6c-0.5-0.6-0.8-1.4-0.8-2.3c0-1.2,0.5-2.2,1.6-3.2c1.1-1,3-1.7,5.7-2.2l7.8-1.5
          V268.4z"/>
        <path d="M73.7,242.6c-1.8,1-3.1,26-5.1,26.6v20.3c0,0.8,0.3,1.5,0.8,2c0.5,0.5,1.2,0.8,2,0.8h18c0.8,0,1.5-0.3,2-0.8
          c0.5-0.5,0.8-1.2,0.8-2v-53.1H111c0.8,0,1.5-0.3,2-0.8c0.5-0.5,0.8-1.2,0.8-2v-14.6c0-0.8-0.3-1.5-0.8-2c-0.5-0.6-1.2-0.8-2-0.8
          l-48.4,0L73.7,242.6z"/>
        <path d="M63.9,216.1c0,0-3.2,0-4.9-0.4c-0.5-0.2-1.1-0.6-1.6-1.1c-1.1-1.1-1.8-2.9-2-4.7c-0.2-1.9,0.3-4,1.2-5.7
          c0.5-0.9,1.1-1.6,1.8-2.3c0.4-0.4,0.9-0.8,1.4-1.1c0.4-0.2,0.8-0.4,1.2-0.6c0.3-0.1,0.7-0.3,1-0.4c0.7-0.2,1.4-0.4,2.2-0.4
          c0.2,0,0.4,0,0.6,0c0.8,0,1.6,0.1,2.3,0.3c0.6,0.2,1.1,0.4,1.5,0.7c0.3,0.2,0.5,0.4,0.7,0.5c0.5,0.4,0.9,1.2,1,2
          c0.1,0.9,0,1.7-0.5,2.5c-0.3,0.5-0.7,1-1.3,1.4c-0.3,0.2-0.6,0.4-0.9,0.5l-0.4,0.2c-1.7,0.7-2.5,2.7-1.7,4.4c0.6,1.2,1.8,2,3,2h0
          c0.2,0,0.3,0,0.5,0c2.5-0.4,4.9-1.5,6.7-3.4c1.9-1.8,3.1-4.4,3.5-7.1c0.4-2.6-0.1-5.5-1.5-8.1c-1.4-2.5-3.5-4.3-5.6-5.6
          c-1.1-0.7-2.3-1.2-3.5-1.6c-1.5-0.5-3-0.8-4.5-1c-0.7-0.1-1.5-0.1-2.2-0.1c-0.7,0-1.4,0-2.2,0.1c-0.7,0.1-1.5,0.2-2.2,0.3
          c-2.4,0.5-4.8,1.3-7,2.6c-2.2,1.3-4.3,3-5.9,4.9c-3.3,3.9-5.5,8.7-6.1,13.8c-0.6,5.2,0.3,10.6,3,15.6c1.3,2.5,3.1,4.8,5.4,6.8
          c1.1,0.9,2.6,2,4,2.7c1.4,0.7,2.9,1.3,4.3,1.7c2.8,0.8,5.2,1,7.4,1.1l1.3,0l4.8,0l-0.1,32.5l9.2,3.2l-1.3-37.1L63.9,216.1z"/>
        <path d="M47.6,248c-1.4,0.7-2.9,0.9-4.4,0.9c-1.5,0-3-0.3-4.5-0.8c-1.4-0.5-2.8-1.3-3.9-2.3c-1.2-1-2.1-2.3-2.5-3.8
          c-0.2-0.5,0.1-1,0.6-1.2c0.3-0.1,0.6,0,0.9,0.2l0,0c1,0.8,2,1.5,3,2c1,0.6,2.1,1.1,3.2,1.5c2.2,0.8,4.6,1.3,7.1,1.4l0.1,0
          c0.6,0,1.1,0.6,1,1.1C48.2,247.5,48,247.8,47.6,248z"/>
        <path d="M50.3,241.1c-0.2,0.5-0.7,0.8-1.2,0.9c-2.1,0.2-4.2-0.2-6.2-1c-1.9-0.8-3.7-2-5.2-3.5
          c-1.5-1.5-2.7-3.3-3.5-5.2c-0.8-1.9-1.1-4.1-0.8-6.2c0.1-0.7,0.8-1.2,1.5-1c0.4,0.1,0.8,0.3,0.9,0.7l0,0.1c0.7,1.6,1.5,3,2.4,4.4
          c0.9,1.3,1.9,2.5,3,3.7c1.1,1.1,2.4,2.1,3.7,3c1.3,0.9,2.8,1.6,4.3,2.3l0.1,0C50.3,239.5,50.6,240.4,50.3,241.1z"/>
      </g>
    </svg>
  </g>

  <!-- tagline -->
  <text x="585" y="1562" text-anchor="middle" font-family="Quicksand, sans-serif" font-weight="600" font-size="37" fill="#FFFFFF" fill-opacity=".62" letter-spacing=".5">
    <tspan x="585" dy="0">Komunitas Pecinta Hewan Peliharaan</tspan>
    <tspan x="585" dy="50">Indonesia</tspan>
  </text>

</svg>
